<?xml version="1.0" encoding="UTF-8" standalone="no"?>
<svg version="1.1" id="Capa_1" xmlns="http://www.w3.org/2000/svg" xmlns:xlink="http://www.w3.org/1999/xlink" x="0px" y="0px"
	 width="215.209px" height="215.209px" viewBox="0 0 215.209 215.209" style="enable-background:new 0 0 215.209 215.209;"
	 xml:space="preserve">
<g>
	<g>
		<path d="M90.798,79.813c-1.878-0.929-3.663-1.994-5.346-3.212l-35.32,58.788c1.875,0.932,3.659,2.003,5.343,3.209L90.798,79.813z"
			/>
		<path d="M71.149,166.31c0.088,1.035,0.158,2.064,0.158,3.118s-0.076,2.083-0.158,3.118h72.908
			c-0.085-1.035-0.158-2.064-0.158-3.118s0.079-2.083,0.158-3.118H71.149z"/>
		<path d="M124.414,79.813l35.329,58.785c1.681-1.206,3.471-2.277,5.341-3.209L129.76,76.602
			C128.085,77.819,126.295,78.891,124.414,79.813z"/>
		<path d="M82.447,55.472l-5.541,3.453l5.438,8.692l5.541-3.459c2.515,2.728,5.52,4.844,8.781,6.284l-1.452,6.348l9.968,2.314
			l1.474-6.36c3.559,0.143,7.188-0.444,10.659-1.796l3.446,5.547l8.689-5.429l-3.478-5.538c2.729-2.524,4.859-5.529,6.297-8.799
			l6.345,1.474l2.308-9.989l-6.339-1.464c0.134-3.568-0.469-7.204-1.809-10.662l5.56-3.45l-5.443-8.692l-5.535,3.462
			c-2.539-2.719-5.517-4.835-8.781-6.293l1.468-6.354l-9.989-2.292l-1.474,6.351c-3.559-0.128-7.194,0.463-10.656,1.796
			l-3.465-5.547l-8.662,5.423l3.461,5.544c-2.725,2.512-4.859,5.517-6.299,8.793l-6.354-1.474l-2.32,9.983l6.354,1.464
			C80.52,48.381,81.107,51.998,82.447,55.472z M97.862,30.181c8.635-5.383,19.976-2.768,25.353,5.855
			c5.389,8.604,2.758,19.966-5.852,25.334c-8.607,5.383-19.948,2.755-25.35-5.855C86.633,46.923,89.264,35.561,97.862,30.181z"/>
		<path d="M58.486,159.728l5.562-3.446l-5.444-8.695l-5.538,3.458c-2.536-2.715-5.517-4.834-8.777-6.289l1.464-6.352l-9.989-2.302
			l-1.47,6.357c-3.562-0.134-7.198,0.463-10.656,1.796l-3.468-5.547l-8.662,5.419l3.462,5.548c-2.725,2.515-4.859,5.517-6.299,8.793
			l-6.354-1.475L0,166.974l6.354,1.468c-0.125,3.58,0.46,7.197,1.799,10.662l-5.541,3.458l5.438,8.689l5.542-3.465
			c2.515,2.734,5.52,4.848,8.78,6.291l-1.452,6.344l9.968,2.314l1.474-6.363c3.559,0.146,7.188-0.438,10.656-1.79l3.452,5.547
			l8.687-5.431l-3.474-5.535c2.725-2.527,4.859-5.529,6.293-8.799l6.348,1.473l2.308-9.992l-6.342-1.461
			C60.426,166.827,59.82,163.192,58.486,159.728z M43.06,185.028c-8.604,5.383-19.945,2.758-25.346-5.852
			c-5.374-8.598-2.749-19.961,5.849-25.338c8.634-5.383,19.979-2.77,25.352,5.853C54.303,168.289,51.676,179.651,43.06,185.028z"/>
		<path d="M208.876,170.396c0.128-3.568-0.469-7.203-1.809-10.668l5.56-3.446l-5.438-8.689l-5.541,3.459
			c-2.54-2.716-5.518-4.829-8.781-6.29l1.468-6.357l-9.992-2.289l-1.474,6.351c-3.556-0.128-7.191,0.463-10.656,1.796l-3.458-5.547
			l-8.665,5.426l3.465,5.541c-2.729,2.509-4.859,5.517-6.303,8.793L150.902,157l-2.326,9.985l6.356,1.462
			c-0.121,3.581,0.463,7.197,1.803,10.662l-5.541,3.452l5.432,8.695l5.547-3.458c2.515,2.728,5.523,4.847,8.78,6.284l-1.455,6.345
			l9.975,2.313l1.474-6.357c3.556,0.141,7.185-0.443,10.655-1.796l3.447,5.548l8.688-5.432l-3.477-5.535
			c2.728-2.527,4.859-5.535,6.296-8.799l6.345,1.474l2.309-9.986L208.876,170.396z M191.65,185.028
			c-8.598,5.383-19.948,2.758-25.343-5.852c-5.377-8.598-2.752-19.961,5.846-25.338c8.634-5.383,19.984-2.77,25.355,5.853
			C202.891,168.289,200.26,179.651,191.65,185.028z"/>
	</g>
</g>
<g>
</g>
<g>
</g>
<g>
</g>
<g>
</g>
<g>
</g>
<g>
</g>
<g>
</g>
<g>
</g>
<g>
</g>
<g>
</g>
<g>
</g>
<g>
</g>
<g>
</g>
<g>
</g>
<g>
</g>
</svg>