<?xml version="1.0" encoding="UTF-8" standalone="no"?>
<svg version="1.1" id="Layer_1" xmlns="http://www.w3.org/2000/svg" xmlns:xlink="http://www.w3.org/1999/xlink" x="0px" y="0px"
	 width="512px" height="512px" viewBox="0 0 512 512" enable-background="new 0 0 512 512" xml:space="preserve">
<g>
	<path d="M480,96H32c-17.688,0-32,14.313-32,32v256c0,17.688,14.313,32,32,32h448c17.688,0,32-14.313,32-32V128
		C512,110.313,497.688,96,480,96z M480,384H32V224h448V384z M480,160H32v-32h448V160z"/>
	<rect x="64" y="320" width="64" height="32"/>
	<rect x="160" y="320" width="64" height="32"/>
	<path d="M336,352c12.344,0,23.5-4.813,32-12.469c8.5,7.656,19.656,12.469,32,12.469c26.5,0,48-21.5,48-48s-21.5-48-48-48
		c-12.344,0-23.5,4.813-32,12.469C359.5,260.813,348.344,256,336,256c-26.5,0-48,21.5-48,48S309.5,352,336,352z"/>
</g>
</svg>